# xmcd
#
# Track frame offsets:
#	150
#	21526
#	32188
#	51395
#	66032
#	79460
#	98950
#	116541
#	133264
#	154186
#
# Disc length: 2258 seconds
#
# Revision: 0
# Processed by: cddbd v1.5.2PL0 Copyright (c) Steve Scherf et al.
# Submitted via: EZCDAudioConverter 2.1.7.1
#
DISCID=9108d00a
DTITLE=Dungen - Dungen 4
DYEAR=1900
DGENRE=
TTITLE0=Sätt Att Se
TTITLE1=Målerås Finest
TTITLE2=Det Tar Tid
TTITLE3=Samtidigt 1
TTITLE4=Ingenting Är Sig Likt
TTITLE5=Fredag
TTITLE6=Finns Det Någon Möjlighet
TTITLE7=Mina Damer Och Fasaner
TTITLE8=Samtidigt 2
TTITLE9=Bandhagen
EXTD=
EXTT0=
EXTT1=
EXTT2=
EXTT3=
EXTT4=
EXTT5=
EXTT6=
EXTT7=
EXTT8=
EXTT9=
PLAYORDER=
